<svg xmlns="http://www.w3.org/2000/svg">
     <symbol id="search-svg" viewBox="0 0 26 26" >  
        <path d="M25.6445 22.4809L20.5816 17.418C20.3531 17.1895 20.0434 17.0625 19.7184 17.0625H18.8906C20.2922 15.2699 21.125 13.0152 21.125 10.5625C21.125 4.72773 16.3973 0 10.5625 0C4.72773 0 0 4.72773 0 10.5625C0 16.3973 4.72773 21.125 10.5625 21.125C13.0152 21.125 15.2699 20.2922 17.0625 18.8906V19.7184C17.0625 20.0434 17.1895 20.3531 17.418 20.5816L22.4809 25.6445C22.9582 26.1219 23.7301 26.1219 24.2023 25.6445L25.6395 24.2074C26.1168 23.7301 26.1168 22.9582 25.6445 22.4809ZM10.5625 17.0625C6.97227 17.0625 4.0625 14.1578 4.0625 10.5625C4.0625 6.97227 6.96719 4.0625 10.5625 4.0625C14.1527 4.0625 17.0625 6.96719 17.0625 10.5625C17.0625 14.1527 14.1578 17.0625 10.5625 17.0625Z" />
        </symbol>
    <!-- -fb -->
    <symbol id="fb-svg" viewBox="0 0 14 25" width="14" height="25"> 
        <path d="M12.5122 14.0625L13.2065 9.53809H8.86523V6.60205C8.86523 5.36426 9.47168 4.15771 11.416 4.15771H13.3896V0.305664C13.3896 0.305664 11.5986 0 9.88623 0C6.31104 0 3.97412 2.16699 3.97412 6.08984V9.53809H0V14.0625H3.97412V25H8.86523V14.0625H12.5122Z" />
        </symbol> 
   
    <symbol id="inst-svg" viewBox="0 0 22 22">
        <path d="M11.0025 5.35828C7.88098 5.35828 5.36319 7.87607 5.36319 10.9975C5.36319 14.119 7.88098 16.6368 11.0025 16.6368C14.1239 16.6368 16.6417 14.119 16.6417 10.9975C16.6417 7.87607 14.1239 5.35828 11.0025 5.35828ZM11.0025 14.6638C8.98528 14.6638 7.3362 13.0196 7.3362 10.9975C7.3362 8.97546 8.98037 7.33129 11.0025 7.33129C13.0245 7.33129 14.6687 8.97546 14.6687 10.9975C14.6687 13.0196 13.0196 14.6638 11.0025 14.6638ZM18.1877 5.12761C18.1877 5.8589 17.5988 6.44295 16.8724 6.44295C16.1411 6.44295 15.5571 5.85399 15.5571 5.12761C15.5571 4.40123 16.146 3.81227 16.8724 3.81227C17.5988 3.81227 18.1877 4.40123 18.1877 5.12761ZM21.9227 6.46258C21.8393 4.70061 21.4368 3.13988 20.146 1.85399C18.8601 0.568098 17.2994 0.165644 15.5374 0.0773006C13.7215 -0.0257669 8.27853 -0.0257669 6.46258 0.0773006C4.70552 0.160736 3.14479 0.56319 1.85399 1.84908C0.56319 3.13497 0.165644 4.69571 0.0773006 6.45767C-0.0257669 8.27362 -0.0257669 13.7166 0.0773006 15.5325C0.160736 17.2945 0.56319 18.8552 1.85399 20.1411C3.14479 21.427 4.70061 21.8294 6.46258 21.9178C8.27853 22.0209 13.7215 22.0209 15.5374 21.9178C17.2994 21.8344 18.8601 21.4319 20.146 20.1411C21.4319 18.8552 21.8344 17.2945 21.9227 15.5325C22.0258 13.7166 22.0258 8.27853 21.9227 6.46258ZM19.5767 17.481C19.1939 18.4429 18.4528 19.184 17.4859 19.5718C16.038 20.146 12.6025 20.0135 11.0025 20.0135C9.40245 20.0135 5.96196 20.1411 4.51902 19.5718C3.55705 19.189 2.81595 18.4479 2.42822 17.481C1.85399 16.0331 1.9865 12.5975 1.9865 10.9975C1.9865 9.39755 1.8589 5.95706 2.42822 4.51411C2.81104 3.55215 3.55215 2.81104 4.51902 2.42331C5.96687 1.84908 9.40245 1.9816 11.0025 1.9816C12.6025 1.9816 16.0429 1.85399 17.4859 2.42331C18.4479 2.80613 19.189 3.54724 19.5767 4.51411C20.1509 5.96196 20.0184 9.39755 20.0184 10.9975C20.0184 12.5975 20.1509 16.038 19.5767 17.481Z" />
        </symbol>
  
    <symbol id="tw-svg" viewBox="0 0 24 20"> 
        <path d="M21.5331 4.85786C21.5483 5.07105 21.5483 5.28429 21.5483 5.49747C21.5483 12 16.5991 19.4924 7.55333 19.4924C4.7665 19.4924 2.17768 18.6853 0 17.2843C0.395955 17.33 0.776628 17.3452 1.18782 17.3452C3.48728 17.3452 5.60407 16.5686 7.29444 15.2437C5.13199 15.198 3.31979 13.7818 2.69542 11.8325C3.00001 11.8782 3.30456 11.9086 3.62439 11.9086C4.066 11.9086 4.50766 11.8477 4.9188 11.7412C2.66499 11.2843 0.974582 9.30458 0.974582 6.91371V6.85282C1.62938 7.21831 2.39087 7.44673 3.19792 7.47715C1.87304 6.59388 1.00505 5.08629 1.00505 3.38069C1.00505 2.46699 1.24866 1.62943 1.67508 0.898457C4.09642 3.88323 7.73605 5.83244 11.8172 6.04568C11.7411 5.68019 11.6954 5.29952 11.6954 4.9188C11.6954 2.2081 13.8883 0 16.6142 0C18.0304 0 19.3096 0.593909 20.2081 1.5533C21.3198 1.34011 22.3858 0.928926 23.33 0.365486C22.9644 1.50765 22.1878 2.46704 21.1675 3.07614C22.1574 2.96959 23.1168 2.69542 24 2.31474C23.3301 3.28933 22.4924 4.15731 21.5331 4.85786Z" />
         </symbol>
    
    <symbol id="whatsapp-svg" viewBox="0 0 21 21"> 
        <path d="M17.8547 3.05156C15.8906 1.08281 13.275 0 10.4953 0C4.75781 0 0.0890625 4.66875 0.0890625 10.4062C0.0890625 12.2391 0.567188 14.0297 1.47656 15.6094L0 21L5.51719 19.5516C7.03594 20.3813 8.74687 20.8172 10.4906 20.8172H10.4953C16.2281 20.8172 21 16.1484 21 10.4109C21 7.63125 19.8188 5.02031 17.8547 3.05156ZM10.4953 19.0641C8.93906 19.0641 7.41562 18.6469 6.08906 17.8594L5.775 17.6719L2.50313 18.5297L3.375 15.3375L3.16875 15.0094C2.30156 13.6313 1.84688 12.0422 1.84688 10.4062C1.84688 5.63906 5.72812 1.75781 10.5 1.75781C12.8109 1.75781 14.9812 2.65781 16.6125 4.29375C18.2437 5.92969 19.2469 8.1 19.2422 10.4109C19.2422 15.1828 15.2625 19.0641 10.4953 19.0641ZM15.2391 12.5859C14.9813 12.4547 13.7016 11.8266 13.4625 11.7422C13.2234 11.6531 13.05 11.6109 12.8766 11.8734C12.7031 12.1359 12.2063 12.7172 12.0516 12.8953C11.9016 13.0688 11.7469 13.0922 11.4891 12.9609C9.96094 12.1969 8.95781 11.5969 7.95 9.86719C7.68281 9.40781 8.21719 9.44063 8.71406 8.44687C8.79844 8.27344 8.75625 8.12344 8.69062 7.99219C8.625 7.86094 8.10469 6.58125 7.88906 6.06094C7.67813 5.55469 7.4625 5.625 7.30313 5.61563C7.15313 5.60625 6.97969 5.60625 6.80625 5.60625C6.63281 5.60625 6.35156 5.67188 6.1125 5.92969C5.87344 6.19219 5.20312 6.82031 5.20312 8.1C5.20312 9.37969 6.13594 10.6172 6.2625 10.7906C6.39375 10.9641 8.09531 13.5891 10.7062 14.7188C12.3562 15.4312 13.0031 15.4922 13.8281 15.3703C14.3297 15.2953 15.3656 14.7422 15.5812 14.1328C15.7969 13.5234 15.7969 13.0031 15.7313 12.8953C15.6703 12.7781 15.4969 12.7125 15.2391 12.5859Z" />
        </symbol>
        </svg>







